<?xml version="1.0" standalone="no"?><!DOCTYPE svg PUBLIC "-//W3C//DTD SVG 1.1//EN" "http://www.w3.org/Graphics/SVG/1.1/DTD/svg11.dtd"><svg t="1531210778543" class="icon" style="" viewBox="0 0 1024 1024" version="1.1" xmlns="http://www.w3.org/2000/svg" p-id="1340" xmlns:xlink="http://www.w3.org/1999/xlink" width="200" height="200"><defs><style type="text/css"></style></defs><path d="M381.342458 17.063226C424.13813 5.710676 468.069056 0 512.034384 0c68.734527 0 135.576962 13.519854 198.73842 40.249948l-8.394006 371.090762L381.342458 17.063226z" p-id="1341"></path><path d="M69.560167 254.434716c22.361082-38.42666 49.400791-73.585162 80.431093-104.477857 48.575151-48.575151 105.3723-86.279376 168.912176-112.080625L575.471055 306.17482 69.560167 254.434716z" p-id="1342"></path><path d="M17.063226 642.760712C5.745078 600.137049 0 556.206123 0 511.999983c0-68.80333 13.554256-135.645766 40.249948-198.669616L411.375112 321.655569 17.063226 642.760712z" p-id="1343"></path><path d="M254.434716 954.439799c-38.151447-22.223476-73.241145-49.263185-104.409054-80.431093-48.609553-48.506348-86.313778-105.303497-112.080625-168.912176l268.298587-256.464414L254.434716 954.439799z" p-id="1344"></path><path d="M512.034384 1023.999966c-68.734527 0-135.576962-13.519854-198.73842-40.181145l8.394006-371.090762 321.036339 394.277485C599.861836 1018.289289 555.965311 1023.999966 512.034384 1023.999966z" p-id="1345"></path><path d="M448.597714 717.859547l505.910888 51.740104c-22.189074 38.082643-49.15998 73.172342-80.465495 104.409054-48.506348 48.643955-105.3723 86.34818-168.912176 112.149428L448.597714 717.859547z" p-id="1346"></path><path d="M612.693657 702.4132l394.277485-321.105143c11.318148 42.658065 17.028824 86.623393 17.028824 130.691926 0 69.00974-13.554256 135.783372-40.215547 198.73842L612.693657 702.4132z" p-id="1347"></path><path d="M769.56525 69.594569c38.117045 22.120271 73.275547 49.125578 104.477857 80.36229 48.643955 48.506348 86.34818 105.3723 112.080625 168.912176l-268.298587 256.533217L769.56525 69.594569z" p-id="1348"></path></svg>